<svg xmlns="http://www.w3.org/2000/svg" viewBox="0 0 128 128" role="img" aria-label="Cloudflare One GUI">
  <rect width="128" height="128" rx="26" fill="#fff3e8"/>
  <rect x="6" y="6" width="116" height="116" rx="22" fill="none" stroke="#ffd1a6" stroke-width="4"/>
  <path fill="#f48120" d="M35 77h53c9 0 16-7 16-16s-7-16-16-16h-2c-4-13-16-22-30-22-17 0-31 14-31 31v1c-9 2-16 10-16 20 0 1 1 2 2 2h24Z"/>
  <path fill="#f9a04a" d="M82 77h20c10 0 18-8 18-18s-8-18-18-18c-6 0-12 3-15 8 6 3 10 9 10 16 0 5-2 9-5 12H82Z"/>
  <path fill="#fff" opacity=".65" d="M30 59c3-16 16-28 32-28 8 0 15 3 21 8-6-10-16-16-28-16-17 0-31 14-31 31v1c-9 2-16 10-16 20 0 1 1 2 2 2h5c1-9 7-16 15-18Z"/>
</svg>
